<mxfile host="app.diagrams.net" modified="2024-03-14T08:52:28.954Z" agent="Mozilla/5.0 (Windows NT 10.0; Win64; x64) AppleWebKit/537.36 (KHTML, like Gecko) Chrome/122.0.0.0 Safari/537.36 Edg/122.0.0.0" etag="yUUH_P1iHul_5KDSvOLE" version="23.1.4" type="device">
  <diagram name="Page-1" id="SUH7ToYQC48URsTY7dql">
    <mxGraphModel dx="1834" dy="1373" grid="1" gridSize="10" guides="1" tooltips="1" connect="1" arrows="1" fold="1" page="1" pageScale="1" pageWidth="850" pageHeight="1100" math="0" shadow="0">
      <root>
        <mxCell id="0" />
        <mxCell id="1" parent="0" />
        <mxCell id="ebEk8yeI4t7tymXgJbeD-3" value="CV" style="shape=note;whiteSpace=wrap;html=1;backgroundOutline=1;darkOpacity=0.05;fontFamily=Architects Daughter;fontSource=https%3A%2F%2Ffonts.googleapis.com%2Fcss%3Ffamily%3DArchitects%2BDaughter;" vertex="1" parent="1">
          <mxGeometry x="670" y="190" width="80" height="100" as="geometry" />
        </mxCell>
        <mxCell id="ebEk8yeI4t7tymXgJbeD-10" value="" style="rounded=0;whiteSpace=wrap;html=1;fontFamily=Architects Daughter;fontSource=https%3A%2F%2Ffonts.googleapis.com%2Fcss%3Ffamily%3DArchitects%2BDaughter;" vertex="1" parent="1">
          <mxGeometry x="480" y="380" width="500" height="140" as="geometry" />
        </mxCell>
        <mxCell id="ebEk8yeI4t7tymXgJbeD-7" style="edgeStyle=none;curved=1;rounded=0;orthogonalLoop=1;jettySize=auto;html=1;fontFamily=Architects Daughter;fontSource=https%3A%2F%2Ffonts.googleapis.com%2Fcss%3Ffamily%3DArchitects%2BDaughter;fontSize=16;startSize=14;endArrow=open;endSize=14;sourcePerimeterSpacing=8;targetPerimeterSpacing=8;" edge="1" parent="1" source="ebEk8yeI4t7tymXgJbeD-2" target="ebEk8yeI4t7tymXgJbeD-4">
          <mxGeometry relative="1" as="geometry" />
        </mxCell>
        <mxCell id="ebEk8yeI4t7tymXgJbeD-8" style="edgeStyle=none;curved=1;rounded=0;orthogonalLoop=1;jettySize=auto;html=1;fontFamily=Architects Daughter;fontSource=https%3A%2F%2Ffonts.googleapis.com%2Fcss%3Ffamily%3DArchitects%2BDaughter;fontSize=16;startSize=14;endArrow=open;endSize=14;sourcePerimeterSpacing=8;targetPerimeterSpacing=8;" edge="1" parent="1" source="ebEk8yeI4t7tymXgJbeD-2" target="ebEk8yeI4t7tymXgJbeD-5">
          <mxGeometry relative="1" as="geometry" />
        </mxCell>
        <mxCell id="ebEk8yeI4t7tymXgJbeD-9" style="edgeStyle=none;curved=1;rounded=0;orthogonalLoop=1;jettySize=auto;html=1;fontFamily=Architects Daughter;fontSource=https%3A%2F%2Ffonts.googleapis.com%2Fcss%3Ffamily%3DArchitects%2BDaughter;fontSize=16;startSize=14;endArrow=open;endSize=14;sourcePerimeterSpacing=8;targetPerimeterSpacing=8;" edge="1" parent="1" source="ebEk8yeI4t7tymXgJbeD-2" target="ebEk8yeI4t7tymXgJbeD-6">
          <mxGeometry relative="1" as="geometry" />
        </mxCell>
        <mxCell id="ebEk8yeI4t7tymXgJbeD-2" value="CV" style="shape=note;whiteSpace=wrap;html=1;backgroundOutline=1;darkOpacity=0.05;fontFamily=Architects Daughter;fontSource=https%3A%2F%2Ffonts.googleapis.com%2Fcss%3Ffamily%3DArchitects%2BDaughter;" vertex="1" parent="1">
          <mxGeometry x="650" y="200" width="80" height="100" as="geometry" />
        </mxCell>
        <mxCell id="ebEk8yeI4t7tymXgJbeD-4" value="&lt;h1&gt;Chunk 1&lt;/h1&gt;&lt;p&gt;PErsonal details&lt;/p&gt;" style="text;html=1;spacing=5;spacingTop=-20;whiteSpace=wrap;overflow=hidden;rounded=0;fontFamily=Architects Daughter;fontSource=https%3A%2F%2Ffonts.googleapis.com%2Fcss%3Ffamily%3DArchitects%2BDaughter;" vertex="1" parent="1">
          <mxGeometry x="530" y="420" width="120" height="70" as="geometry" />
        </mxCell>
        <mxCell id="ebEk8yeI4t7tymXgJbeD-5" value="&lt;h1&gt;Chunk 2&lt;/h1&gt;&lt;p&gt;work experience&lt;/p&gt;" style="text;html=1;spacing=5;spacingTop=-20;whiteSpace=wrap;overflow=hidden;rounded=0;fontFamily=Architects Daughter;fontSource=https%3A%2F%2Ffonts.googleapis.com%2Fcss%3Ffamily%3DArchitects%2BDaughter;" vertex="1" parent="1">
          <mxGeometry x="680" y="420" width="130" height="80" as="geometry" />
        </mxCell>
        <mxCell id="ebEk8yeI4t7tymXgJbeD-6" value="&lt;h1&gt;Chunk 2&lt;/h1&gt;&lt;p&gt;Skills and Certificates&lt;/p&gt;" style="text;html=1;spacing=5;spacingTop=-20;whiteSpace=wrap;overflow=hidden;rounded=0;fontFamily=Architects Daughter;fontSource=https%3A%2F%2Ffonts.googleapis.com%2Fcss%3Ffamily%3DArchitects%2BDaughter;" vertex="1" parent="1">
          <mxGeometry x="820" y="420" width="130" height="80" as="geometry" />
        </mxCell>
        <mxCell id="ebEk8yeI4t7tymXgJbeD-12" value="&lt;font style=&quot;font-size: 19px;&quot;&gt;OR Chunk based on number of words&lt;/font&gt;" style="rounded=0;whiteSpace=wrap;html=1;fontFamily=Architects Daughter;fontSource=https%3A%2F%2Ffonts.googleapis.com%2Fcss%3Ffamily%3DArchitects%2BDaughter;" vertex="1" parent="1">
          <mxGeometry x="480" y="520" width="500" height="40" as="geometry" />
        </mxCell>
        <mxCell id="ebEk8yeI4t7tymXgJbeD-28" style="edgeStyle=none;curved=1;rounded=0;orthogonalLoop=1;jettySize=auto;html=1;entryX=0;entryY=0.5;entryDx=0;entryDy=0;fontFamily=Architects Daughter;fontSource=https%3A%2F%2Ffonts.googleapis.com%2Fcss%3Ffamily%3DArchitects%2BDaughter;fontSize=16;startSize=14;endArrow=open;endSize=14;sourcePerimeterSpacing=8;targetPerimeterSpacing=8;" edge="1" parent="1" source="ebEk8yeI4t7tymXgJbeD-16" target="ebEk8yeI4t7tymXgJbeD-27">
          <mxGeometry relative="1" as="geometry" />
        </mxCell>
        <mxCell id="ebEk8yeI4t7tymXgJbeD-16" value="" style="rounded=1;whiteSpace=wrap;html=1;fontFamily=Architects Daughter;fontSource=https%3A%2F%2Ffonts.googleapis.com%2Fcss%3Ffamily%3DArchitects%2BDaughter;" vertex="1" parent="1">
          <mxGeometry x="480" y="640" width="330" height="150" as="geometry" />
        </mxCell>
        <mxCell id="ebEk8yeI4t7tymXgJbeD-19" style="edgeStyle=none;curved=1;rounded=0;orthogonalLoop=1;jettySize=auto;html=1;fontFamily=Architects Daughter;fontSource=https%3A%2F%2Ffonts.googleapis.com%2Fcss%3Ffamily%3DArchitects%2BDaughter;fontSize=16;startSize=14;endArrow=open;endSize=14;sourcePerimeterSpacing=8;targetPerimeterSpacing=8;" edge="1" parent="1" source="ebEk8yeI4t7tymXgJbeD-17" target="ebEk8yeI4t7tymXgJbeD-18">
          <mxGeometry relative="1" as="geometry" />
        </mxCell>
        <mxCell id="ebEk8yeI4t7tymXgJbeD-20" value="Who knows OpenShift?" style="edgeLabel;html=1;align=center;verticalAlign=middle;resizable=0;points=[];;fontSize=16;fontFamily=Architects Daughter;fontSource=https%3A%2F%2Ffonts.googleapis.com%2Fcss%3Ffamily%3DArchitects%2BDaughter;" vertex="1" connectable="0" parent="ebEk8yeI4t7tymXgJbeD-19">
          <mxGeometry x="0.1709" y="-2" relative="1" as="geometry">
            <mxPoint x="-21" y="-7" as="offset" />
          </mxGeometry>
        </mxCell>
        <mxCell id="ebEk8yeI4t7tymXgJbeD-17" value="Actor" style="shape=umlActor;verticalLabelPosition=bottom;verticalAlign=top;html=1;outlineConnect=0;fontFamily=Architects Daughter;fontSource=https%3A%2F%2Ffonts.googleapis.com%2Fcss%3Ffamily%3DArchitects%2BDaughter;" vertex="1" parent="1">
          <mxGeometry x="320" y="680" width="30" height="60" as="geometry" />
        </mxCell>
        <mxCell id="ebEk8yeI4t7tymXgJbeD-18" value="Retrieval" style="rounded=1;whiteSpace=wrap;html=1;fontFamily=Architects Daughter;fontSource=https%3A%2F%2Ffonts.googleapis.com%2Fcss%3Ffamily%3DArchitects%2BDaughter;" vertex="1" parent="1">
          <mxGeometry x="610" y="690" width="120" height="60" as="geometry" />
        </mxCell>
        <mxCell id="ebEk8yeI4t7tymXgJbeD-23" style="edgeStyle=none;curved=1;rounded=0;orthogonalLoop=1;jettySize=auto;html=1;entryX=0.377;entryY=1.095;entryDx=0;entryDy=0;entryPerimeter=0;fontFamily=Architects Daughter;fontSource=https%3A%2F%2Ffonts.googleapis.com%2Fcss%3Ffamily%3DArchitects%2BDaughter;fontSize=16;startSize=14;endArrow=open;endSize=14;sourcePerimeterSpacing=8;targetPerimeterSpacing=8;" edge="1" parent="1" source="ebEk8yeI4t7tymXgJbeD-18" target="ebEk8yeI4t7tymXgJbeD-12">
          <mxGeometry relative="1" as="geometry">
            <Array as="points">
              <mxPoint x="630" y="620" />
            </Array>
          </mxGeometry>
        </mxCell>
        <mxCell id="ebEk8yeI4t7tymXgJbeD-24" style="edgeStyle=none;curved=1;rounded=0;orthogonalLoop=1;jettySize=auto;html=1;entryX=0.5;entryY=0;entryDx=0;entryDy=0;fontFamily=Architects Daughter;fontSource=https%3A%2F%2Ffonts.googleapis.com%2Fcss%3Ffamily%3DArchitects%2BDaughter;fontSize=16;startSize=14;endArrow=open;endSize=14;sourcePerimeterSpacing=8;targetPerimeterSpacing=8;" edge="1" parent="1" target="ebEk8yeI4t7tymXgJbeD-18">
          <mxGeometry relative="1" as="geometry">
            <mxPoint x="670" y="570" as="sourcePoint" />
            <Array as="points">
              <mxPoint x="730" y="620" />
            </Array>
          </mxGeometry>
        </mxCell>
        <mxCell id="ebEk8yeI4t7tymXgJbeD-25" value="NEED HELP!!!" style="edgeLabel;html=1;align=center;verticalAlign=middle;resizable=0;points=[];;fontSize=16;fontFamily=Architects Daughter;fontSource=https%3A%2F%2Ffonts.googleapis.com%2Fcss%3Ffamily%3DArchitects%2BDaughter;labelBorderColor=#FF3333;fontColor=#FF3333;fontStyle=1" vertex="1" connectable="0" parent="ebEk8yeI4t7tymXgJbeD-24">
          <mxGeometry x="0.1725" y="-20" relative="1" as="geometry">
            <mxPoint as="offset" />
          </mxGeometry>
        </mxCell>
        <mxCell id="ebEk8yeI4t7tymXgJbeD-27" value="" style="shape=image;verticalLabelPosition=bottom;labelBackgroundColor=default;verticalAlign=top;aspect=fixed;imageAspect=0;image=https://static-00.iconduck.com/assets.00/openai-icon-2021x2048-4rpe5x7n.png;" vertex="1" parent="1">
          <mxGeometry x="980" y="690" width="39.47" height="40" as="geometry" />
        </mxCell>
        <mxCell id="ebEk8yeI4t7tymXgJbeD-30" value="&lt;a href=&quot;https://learn.microsoft.com/en-us/azure/search/hybrid-search-how-to-query#semantic-hybrid-search&quot;&gt;Hybrid query how-to - Azure AI Search | Microsoft Learn&lt;/a&gt;" style="text;html=1;align=center;verticalAlign=middle;resizable=0;points=[];autosize=1;strokeColor=none;fillColor=none;;fontSize=20;fontFamily=Architects Daughter;fontSource=https%3A%2F%2Ffonts.googleapis.com%2Fcss%3Ffamily%3DArchitects%2BDaughter;" vertex="1" parent="1">
          <mxGeometry x="449.47" y="840" width="570" height="40" as="geometry" />
        </mxCell>
      </root>
    </mxGraphModel>
  </diagram>
</mxfile>
